<svg id="Layer_1" xmlns="http://www.w3.org/2000/svg" x="0" y="0" viewBox="0 0 168 42" style="enable-background:new 0 0 168 42" xml:space="preserve" class="sc-358d73ba-10 juQkZ"><style type="text/css">.st4{fill:#fff}.st4,.st5{fill-rule:evenodd;clip-rule:evenodd}</style><path d="M42 21c0 1.6-.2 3.2-.5 4.7-.4 2-1.2 3.8-2.1 5.5H2.7c-.3-.5-.5-.9-.7-1.4C.8 27.2.1 24.4.1 21.3v-.4C0 9.4 9.4 0 21 0c5.4 0 10.3 2 14 5.4 1.4 1.2 2.6 2.6 3.6 4.2C40.8 12.8 42 16.8 42 21z" style="fill:#f64942"></path><path d="M42 21c0 1.6-.2 3.2-.5 4.7-.4 2-1.2 3.8-2.1 5.5-.8 1.5-1.9 2.9-3 4.1-2.3-.4-5-.5-10.2 1.7-4.5 1.9-4.8 1.5-9.5-.1l-4-2-3.3-.6c-.5-1-.8-2-1-3.1-.1-.5-.1-1.1-.1-1.6s.1-.9.2-1.4c0-.2.1-.3.1-.5 0-.1.1-.3.1-.4.5-1.5 1.4-2.9 2.7-4.1 1.2-1.1 2.8-1.9 4.8-2.4 2.5-.4 4.7-.9 6.5-1.4l2.1-.6c.3-.1.6-.2.8-.3 3.9-1.3 6.2-2.8 7.7-4.2l.2-.2 1.1-1.1c1.4-1.5 2.3-2.8 4-3.7C40.8 12.8 42 16.8 42 21z" style="fill:#f4ce45"></path><path d="M35 5.3c-1.4 1.4-3 2.6-4.8 3.5-.4.2-.9.4-1.3.6-.1 0-.1.1-.2.1-3.6 1.5-7.6 2.3-11.4 2.5-1.4.1-3.8.1-6.5.7h-.1c-1.1.2-2.3.6-3.5 1.1-2.2 1-4.4 2.6-5.8 5.1-.5.9-1 1.7-1.3 2.4v-.4C0 9.4 9.4 0 21 0c5.4 0 10.3 2 14 5.3z" style="fill:#5b95bf"></path><path d="M41.5 25.7c-.4 2-1.2 3.8-2.1 5.5-.8 1.5-1.9 2.9-3 4.1C32.5 39.5 27 42 21 42c-7.9 0-14.7-4.3-18.3-10.8-.3-.5-.5-.9-.7-1.4 1.8-.5 3.5-1 5.3-1.4.4-.1.8-.1 1.1-.2.1 0 .2 0 .4-.1h.3c.9-.2 1.9-.3 2.8-.3.7 0 1.3-.1 2-.1H15c3.4.3 8.6 2 14 1.6.7-.1 1.5-.1 2.2-.3.2 0 .3-.1.5-.1.1 0 .3-.1.4-.1.3-.1.6-.1.8-.2.4-.1.7-.2 1.1-.4.3-.1.6-.2.8-.3 2.7-1 4.3-1.8 6.7-2.2z" style="fill:#ef90a4"></path><path class="st4" d="M21.2 6.8c.7 0 1.3.4 1.6 1.1 0 .1.1.1.1.1s.1 0 .1-.1c.3-.4.8-.6 1.3-.6.2 0 .3 0 .5.1.7.2 1.2.8 1.3 1.4 0 .1.1.1.2.1h.1c.3-.2.7-.3 1-.3.3 0 .6.1.9.2.6.4.9 1 .9 1.7 0 .1.1.2.2.2h.1c.2-.1.4-.1.6-.1.4 0 .9.2 1.2.5.5.5.6 1.3.4 1.9 0 .1 0 .2.1.2h.2c.6 0 1.2.3 1.5.9.4.6.3 1.4-.1 1.9-.1.1 0 .2.1.2.7.1 1.2.6 1.4 1.3.2.7-.1 1.4-.6 1.8-.1.1-.1.2 0 .3.6.3 1 .9 1 1.6 0 .7-.4 1.3-1.1 1.6-.1 0-.1.2 0 .3.5.4.8 1.1.6 1.8-.2.7-.8 1.2-1.4 1.3-.1 0-.2.2-.1.2.4.5.4 1.3.1 1.9-.3.6-.9.9-1.5.9h-.2c-.1 0-.2.1-.1.2.2.6.1 1.3-.4 1.8-.3.3-.8.5-1.2.5-.2 0-.4 0-.6-.1h-.1c-.1 0-.2.1-.2.2.1.7-.3 1.3-.9 1.7-.3.2-.6.2-.9.2-.4 0-.7-.1-1-.3h-.1c-.1 0-.1.1-.2.1-.1.7-.6 1.2-1.3 1.4-.2 0-.3.1-.5.1-.5 0-1-.2-1.4-.7l-.1-.1c-.1 0-.1 0-.1.1-.3.6-.9 1-1.6 1-.7 0-1.3-.4-1.6-1.1 0-.1-.1-.1-.1-.1s-.1 0-.1.1c-.3.4-.8.6-1.3.6-.2 0-.3 0-.5-.1-.7-.2-1.2-.8-1.3-1.4 0-.1-.1-.1-.2-.1h-.1c-.3.2-.7.3-1 .3-.3 0-.6-.1-.9-.2-.6-.4-.9-1-.9-1.7 0-.1-.1-.2-.2-.2h-.1c-.2.1-.4.1-.6.1-.4 0-.9-.2-1.2-.5-.5-.5-.6-1.3-.4-1.9 0-.1 0-.2-.1-.2h-.2c-.6 0-1.2-.3-1.5-.9-.4-.6-.3-1.4.1-1.9.1-.1 0-.2-.1-.2-.7-.1-1.2-.6-1.4-1.3-.2-.7.1-1.4.6-1.8.1-.1.1-.2 0-.3-.6-.3-1-.9-1-1.6 0-.7.4-1.3 1.1-1.6.1 0 .1-.2 0-.3-.5-.4-.8-1.1-.6-1.8.2-.7.8-1.2 1.4-1.3.1 0 .2-.2.1-.2-.4-.5-.4-1.3-.1-1.9.3-.6.9-.9 1.5-.9h.2c.1 0 .2-.1.1-.2-.2-.6-.1-1.3.4-1.8.3-.3.8-.5 1.2-.5.2 0 .4 0 .6.1h.1c.1 0 .2-.1.2-.2 0-.7.3-1.3.9-1.7.3-.2.6-.2.9-.2.4 0 .7.1 1 .3h.1c.1 0 .1-.1.2-.1.1-.7.6-1.2 1.3-1.4.2 0 .3-.1.5-.1.5 0 1 .2 1.4.7l.1.1c.1 0 .1 0 .1-.1.3-.6.9-1 1.6-1z"></path><path class="st5" d="M32.3 19.6h-.5c-1 0-1.8-.6-2.2-1.4-.4.8-1.2 1.4-2.2 1.4-.8 0-1.4-.4-1.9-.9-.1-.2-.2-.3-.3-.5-.1.3-.3.5-.5.8-.4.4-1 .7-1.6.7-.2 0-.3 0-.5-.1-.8-.1-1.4-.7-1.7-1.3-.4.8-1.2 1.4-2.2 1.4-1 0-1.8-.6-2.2-1.4-.4.8-1.2 1.4-2.2 1.4-1 0-1.8-.6-2.2-1.4-.4.8-1.2 1.4-2.2 1.4h-.2c-.8.9-.3 1.6 1.7 1.6v4.4c0 .8.2 1.5.5 2.2.8 1.6 2.5 2.8 4.5 3.4 1.4.5 3 .7 4.6.7s3.2-.2 4.6-.7c1.3-.4 2.5-1.1 3.4-1.9 1-1 1.6-2.2 1.6-3.7v-4.4c2-.1 2.5-.8 1.7-1.7zm-4.8 6.1c1.5 0 1.6 2.2 0 2.2-1.5 0-1.4-2.2 0-2.2zm-13 2.2c-.2 0-.4 0-.6-.2-.9-.5-.6-2.1.6-2.1 1.3 0 1.5 1.7.5 2.1-.2.1-.3.2-.5.2z"></path><path class="st5" d="M36.7 21.1c0-.7-.2-1.4-.6-1.9.2-.7.3-1.4.1-2.1-.2-.7-.6-1.3-1.1-1.7.1-.7-.1-1.4-.4-2.1-.3-.6-.9-1-1.5-1.3-.1-.7-.4-1.4-1-1.9-.5-.5-1.1-.8-1.8-.9 0-.1-.1-.2-.1-.3-.3-.5-.7-1-1.3-1.3-.5-.3-1.1-.5-1.7-.5H27c-.4-.5-1.1-1-1.8-1.2-.3-.1-.6-.1-.9-.1-.4 0-.8.1-1.2.2-.6-.4-1.3-.7-2-.7s-1.4.2-1.9.6c-.4-.2-.8-.2-1.2-.2-.3 0-.6 0-.9.1-.7.2-1.3.6-1.7 1.1H15c-.6 0-1.2.2-1.7.5-.6.4-1.1.9-1.4 1.5-.7.1-1.4.4-1.9 1-.5.5-.8 1.1-.9 1.8-.6.3-1.2.8-1.6 1.4-.2.2-.3.5-.3.8-.1.3-.2.7-.1 1.1-.5.4-1 1.1-1.2 1.8-.2.7-.1 1.4.1 2-.4.6-.7 1.3-.7 2s.2 1.4.6 1.9c-.3.7-.3 1.4-.1 2.1.2.7.6 1.3 1.1 1.7-.1.6 0 1.3.3 1.9 0 .1.1.1.1.2.2.4.5.7.9 1 .2.2.4.3.6.4.1.4.2.8.4 1.2.1.3.3.5.5.7.5.5 1.1.8 1.8.9.3.6.8 1.2 1.4 1.6.5.3 1.1.5 1.7.5h.3c.4.6 1.1 1 1.8 1.2.3.1.6.1.9.1.4 0 .8-.1 1.2-.2.6.4 1.3.7 2 .7s1.4-.2 1.9-.6c.4.2.8.2 1.2.2.3 0 .6 0 .9-.1.7-.2 1.3-.6 1.7-1.1h.4c.6 0 1.2-.2 1.7-.5.6-.3 1.1-.9 1.4-1.5.7-.1 1.4-.4 1.9-1 .3-.3.5-.6.6-.9l.3-.9c.6-.3 1.2-.8 1.6-1.4.2-.3.3-.6.4-1 .1-.3.1-.7.1-1 .6-.4 1-1.1 1.2-1.8.2-.7.1-1.4-.1-2 .4-.5.7-1.2.7-2zm-2.8 1.6c-.1.1-.1.2 0 .3.5.4.7 1.1.6 1.8-.2.7-.8 1.2-1.4 1.3-.1 0-.2.1-.1.2.4.5.4 1.2.1 1.8-.2.4-.6.6-.9.8-.1 0-.3.1-.4.1h-.3c-.1 0-.1 0-.1.1v.1c.2.6.1 1.3-.4 1.8-.1.1-.2.2-.4.3-.3.2-.6.2-.9.2-.2 0-.4 0-.6-.1H29c-.1 0-.2.1-.1.2 0 .6-.3 1.3-.9 1.6-.3.2-.6.2-.9.2-.4 0-.7-.1-1-.3H26c-.1 0-.1.1-.2.1-.1.6-.6 1.2-1.2 1.4-.1 0-.3.1-.4.1-.5 0-1-.2-1.4-.7l-.1-.1c-.1 0-.1 0-.1.1-.3.6-.9 1-1.6 1-.7 0-1.3-.4-1.6-1 0-.1-.1-.1-.2-.1h-.1c-.3.4-.8.6-1.3.6-.1 0-.3 0-.4-.1-.7-.2-1.2-.8-1.3-1.4 0-.1-.1-.1-.2-.1h-.1c-.3.2-.6.3-1 .3-.3 0-.6-.1-.9-.2-.6-.4-.9-1-.8-1.7v-.1l-.1-.1h-.1c-.1 0-.2.1-.3.1h-.5c-.4 0-.7-.2-1-.5-.5-.5-.6-1.2-.4-1.9 0-.1 0-.2-.2-.2h-.1c-.5 0-.9-.2-1.3-.5-.1 0-.2-.1-.3-.3-.1-.2-.2-.3-.2-.5-.1-.5 0-1 .3-1.4.1-.1 0-.2-.1-.2-.6-.1-1.2-.6-1.4-1.2-.2-.7.1-1.4.6-1.8.1-.1.1-.2 0-.3-.6-.3-1-.9-1-1.6 0-.7.4-1.3 1-1.6.1 0 .1-.2 0-.3-.5-.4-.7-1.1-.6-1.8.3-.6.9-1 1.6-1.1.1 0 .2-.1.1-.2-.4-.5-.4-1.3-.1-1.9.3-.5.9-.9 1.5-.9h.2c.1 0 .2-.1.1-.2v-.2c-.2-.6 0-1.2.4-1.7.3-.3.8-.5 1.2-.5.2 0 .4 0 .6.1h.1c.1 0 .2-.1.1-.2 0-.7.3-1.3.9-1.6.3-.2.6-.2.9-.2.4 0 .7.1 1 .3h.1c.1 0 .1 0 .2-.1.1-.6.6-1.2 1.2-1.4.1 0 .3-.1.4-.1.5 0 1 .2 1.4.6l.1.1c.1 0 .1 0 .1-.1.3-.6.9-1 1.6-1 .7 0 1.3.4 1.6 1 0 .1.1.1.2.1 0 0 .1 0 .1-.1.3-.4.8-.6 1.3-.6.1 0 .3 0 .4.1.8.4 1.2 1 1.3 1.7 0 .1.1.1.2.1h.1c.3-.2.6-.3 1-.3.3 0 .6.1.9.2.2.2.5.4.6.6.2.3.3.7.3 1.1 0 .1.1.2.2.2h.1c.2-.1.4-.1.6-.1.4 0 .9.2 1.2.5.5.5.6 1.2.4 1.9 0 .1 0 .2.2.2h.1c.6 0 1.2.3 1.5.9.1.1.1.2.2.4.2.5 0 1.1-.3 1.5-.1.1 0 .2.1.2.7.1 1.2.6 1.4 1.2.2.7-.1 1.4-.6 1.8-.1.1-.1.2 0 .3.6.3 1 .9 1 1.6-.2.6-.7 1.2-1.3 1.4z"></path><path class="st4" d="M62.1 29c.2.2.4.6.4 1s-.2.7-.5 1c-.3.2-.7.4-1.2.4h-.5c-.9 0-1.8-.2-2.6-.7-.8-.5-1.4-1.1-1.8-1.9s-.7-1.7-.7-2.6v-6.6h-1.3c-.4 0-.7-.1-1-.3-.2-.2-.4-.5-.4-.8 0-.4.1-.6.4-.9.2-.2.6-.3 1-.3h1.3v-3.8c0-.4.1-.7.4-1 .3-.2.6-.4 1-.4s.8.1 1 .4c.3.2.4.6.4 1v3.8h2.4c.4 0 .7.1 1 .3.2.2.4.5.4.9 0 .3-.1.6-.4.8-.2.2-.6.3-1 .3H58v6.6c0 .7.2 1.3.6 1.8.4.5.9.7 1.6.7h1c.4-.1.6.1.9.3zm14.8-11.4c1.2.6 2.1 1.5 2.8 2.7.7 1.1 1 2.4 1 3.8V30c0 .4-.1.7-.4 1-.3.3-.6.4-1 .4s-.8-.1-1-.4c-.3-.3-.4-.6-.4-1v-1c-.7.8-1.5 1.4-2.4 1.8-1 .4-2 .6-3.1.6-1.4 0-2.6-.3-3.8-1-1.1-.6-2-1.5-2.6-2.7-.6-1.1-1-2.4-1-3.8s.3-2.6 1-3.8c.7-1.1 1.6-2 2.9-2.7 1.2-.6 2.6-1 4-1 1.5.2 2.8.6 4 1.2zm-1.4 10.8c.8-.4 1.4-1 1.8-1.8.5-.8.7-1.6.7-2.6 0-.9-.2-1.8-.7-2.6-.4-.8-1-1.4-1.8-1.8-.8-.4-1.6-.7-2.6-.7s-1.8.2-2.6.7c-.8.4-1.4 1-1.8 1.8-.5.8-.7 1.6-.7 2.6 0 .9.2 1.8.7 2.5.5.8 1.1 1.4 1.8 1.8.8.4 1.6.7 2.6.7.9 0 1.8-.2 2.6-.6zm11.4 2.5c-1.2-.4-2.1-.9-2.7-1.5-.2-.2-.4-.5-.4-.8 0-.4.2-.8.6-1 .4-.2.7-.4 1-.4.4 0 .7.2 1.1.5.4.4.9.7 1.6 1 .7.3 1.5.4 2.3.4 1.1 0 1.9-.2 2.5-.5.6-.3.9-.8.9-1.4 0-.6-.3-1-.9-1.4-.6-.4-1.6-.7-3-.9-3.7-.7-5.5-2.1-5.5-4.2 0-.9.3-1.6.8-2.2.6-.6 1.3-1.1 2.2-1.4.9-.3 1.9-.5 2.9-.5 1.2 0 2.4.2 3.3.6 1 .4 1.8.9 2.3 1.5.2.3.4.6.4.9 0 .3-.2.6-.5.8-.2.1-.5.2-.8.2-.5 0-.9-.2-1.4-.5-.5-.4-1-.7-1.5-.9s-1.2-.3-2-.3c-.9 0-1.6.1-2.2.4-.6.3-.8.7-.8 1.2 0 .4.1.7.3.9.2.2.6.5 1.1.7.5.2 1.3.4 2.3.6 2.1.4 3.6.9 4.4 1.6.9.7 1.3 1.6 1.3 2.7 0 .8-.2 1.6-.7 2.2-.5.7-1.2 1.2-2.1 1.6-.9.4-2 .6-3.3.6-1.1 0-2.3-.2-3.5-.5zm25.5-.7c0 .4-.2.7-.5 1-.3.2-.6.3-.9.3-.4 0-.8-.2-1-.5l-5.5-6.3-1.4 1.2V30c0 .4-.1.7-.4.9-.3.2-.6.4-1 .4s-.8-.1-1-.4c-.3-.2-.4-.6-.4-.9V11.8c0-.4.1-.7.4-.9.3-.2.6-.4 1-.4s.8.1 1 .4c.3.2.4.6.4.9v10.8l7-5.8c.2-.2.5-.3.9-.3s.7.1 1 .4c.2.2.4.5.4.8 0 .4-.2.7-.5.9l-5.3 4.4 5.6 6.3c.1.3.2.6.2.9zM126 17.6c1.2.6 2.1 1.5 2.8 2.7.7 1.1 1 2.4 1 3.8V30c0 .4-.1.7-.4 1-.3.3-.6.4-1.1.4-.4 0-.8-.1-1-.4-.3-.3-.4-.6-.4-1v-1c-.7.8-1.5 1.4-2.4 1.8-1 .4-2 .6-3.1.6-1.4 0-2.6-.3-3.8-1-1.1-.6-2-1.5-2.6-2.7-.6-1.1-1-2.4-1-3.8s.3-2.6 1-3.8c.7-1.1 1.6-2 2.9-2.7 1.2-.6 2.6-1 4-1 1.5.2 2.9.6 4.1 1.2zm-1.4 10.8c.8-.4 1.4-1 1.8-1.8.4-.8.7-1.6.7-2.5 0-.9-.2-1.8-.7-2.6-.4-.8-1-1.4-1.8-1.8-.8-.4-1.6-.7-2.6-.7s-1.8.2-2.6.7c-.8.4-1.4 1-1.8 1.8-.5.8-.7 1.6-.7 2.6 0 .9.2 1.8.7 2.5.5.8 1.1 1.4 1.8 1.8.8.4 1.6.7 2.6.7.9-.1 1.8-.3 2.6-.7zm24-17.5c.3.2.4.6.4 1V24c0 1.4-.3 2.6-1 3.8-.7 1.1-1.6 2-2.8 2.7-1.2.6-2.5 1-4 1s-2.8-.3-4-1c-1.2-.6-2.2-1.5-2.9-2.7-.7-1.1-1-2.4-1-3.8s.3-2.6 1-3.8c.6-1.1 1.5-2 2.6-2.7 1.1-.6 2.4-1 3.8-1 1.1 0 2.1.2 3.1.6 1 .4 1.8 1 2.4 1.8v-7.2c0-.4.1-.7.4-1 .3-.2.6-.4 1-.4.4.2.7.3 1 .6zm-4.9 17.5c.8-.4 1.4-1 1.8-1.8s.7-1.6.7-2.6c0-.9-.2-1.8-.7-2.5-.4-.8-1-1.4-1.8-1.8-.8-.4-1.6-.7-2.6-.7s-1.8.2-2.6.7c-.8.4-1.4 1-1.8 1.8-.4.8-.7 1.6-.7 2.5 0 .9.2 1.8.7 2.6.5.8 1.1 1.4 1.8 1.8.8.4 1.6.7 2.6.7.9-.1 1.8-.3 2.6-.7zm23.9-3.8c-.2.2-.6.3-.9.3h-10.9c.2 1.2.8 2.2 1.8 3 1 .8 2.2 1.1 3.7 1.1.6 0 1.2-.1 1.8-.3.6-.2 1.1-.4 1.5-.7.3-.2.6-.3.9-.3s.7.1.9.3c.3.3.5.6.5.9 0 .3-.2.6-.5.8-.7.5-1.5.9-2.4 1.2-1 .3-1.9.5-2.8.5-1.6 0-3-.3-4.2-.9-1.2-.6-2.2-1.5-2.9-2.6-.7-1.1-1.1-2.4-1.1-3.8s.3-2.7 1-3.8c.7-1.1 1.6-2 2.8-2.6 1.2-.6 2.5-.9 4-.9s2.8.3 3.8.9c1.1.6 1.9 1.4 2.5 2.5.6 1.1.9 2.3.9 3.7 0 .2-.1.5-.4.7zM157.4 20c-.9.7-1.4 1.7-1.7 2.9h9.6c-.2-1.2-.7-2.1-1.4-2.9-.8-.7-1.8-1.1-3.1-1.1-1.4 0-2.5.4-3.4 1.1z"></path></svg>